<?xml version="1.0" standalone="no"?>
<!DOCTYPE svg PUBLIC "-//W3C//DTD SVG 20010904//EN"
 "http://www.w3.org/TR/2001/REC-SVG-20010904/DTD/svg10.dtd">
<svg version="1.0" xmlns="http://www.w3.org/2000/svg"
 width="42.000000pt" height="41.000000pt" viewBox="0 0 42.000000 41.000000"
 preserveAspectRatio="xMidYMid meet">

<g transform="translate(0.000000,41.000000) scale(0.100000,-0.100000)"
fill="#000000" stroke="none">
<path d="M191 366 c-11 -12 -26 -45 -32 -73 -11 -47 -16 -54 -51 -67 -39 -16
-54 -42 -18 -32 11 3 29 9 40 12 16 4 20 1 20 -18 0 -57 -14 -101 -32 -106
-27 -7 -22 -32 6 -32 29 0 36 16 43 103 4 44 10 67 19 67 7 0 19 3 28 6 14 5
16 -4 16 -60 0 -54 3 -67 19 -75 14 -8 25 -6 45 10 14 11 26 16 26 11 0 -6 7
-13 16 -16 13 -5 14 -2 8 11 -4 10 -6 47 -5 82 2 43 -1 61 -8 56 -6 -3 -11
-22 -11 -42 0 -39 -34 -103 -55 -103 -17 0 -25 45 -18 98 l6 41 -43 7 c-41 7
-42 8 -36 38 3 17 19 43 36 58 34 32 35 34 16 41 -8 3 -23 -4 -35 -17z"/>
</g>
</svg>
